PathFileType	4	(X/Y/Z)	walk-thru1-3-TP.trc
DataRate	CameraRate	NumFrames	NumMarkers	Units	OrigDataRate	OrigDataStartFrame	OrigNumFrames
120.00	120.00	       4	60	mm	120.00	463	       529
Frame#	Time	Top.Head			Front.Head			Rear.Head			Jaw			C7			R.Clavicle			L.Clavicle			R.Shoulder			L.Shoulder			R.Scapula			L.Scapula			R.Scap.Inf			R.Biceps.Lateral			R.Elbow			R.Elbow.Medial			R.Forearm			R.Ulna			R.Radius			R.Wrist			R.Thumb.M1			R.Thumb.M2			R.Thumb.M3			R.Finger3.M1			R.Finger3.M2			R.Finger3.M3			L.Biceps.Lateral			L.Elbow			L.Elbow.Medial			L.Forearm			L.Ulna			L.Radius			L.Wrist			L.Thumb.M1			L.Thumb.M2			L.Thumb.M3			L.Finger3.M1			L.Finger3.M2			L.Finger3.M3			V.Sacral			R.ASIS			L.ASIS			R.Thigh			R.Thigh.Front			R.Knee			R.Knee.Medial			R.Shank			R.Ankle			R.Ankle.Medial			R.Heel			R.Toe			R.MedFoot			L.Thigh			L.Knee			L.Knee.Medial			L.Shank			L.Ankle			L.Ankle.Medial			L.Heel			L.Toe			L.MedFoot			V_mid_ASIS			V_R_Knee_JC			V_L_Knee_JC			V_R_Elbow_JC			V_L_Elbow_JC			V_R_Ankle_JC			V_L_Ankle_JC			V_R_Wrist_JC			V_L_Wrist_JC			V_R_ScaTrpz_1stMC_JC			V_R_1stMC_1stPP_JC			V_R_1stPP_1stDP_JC			V_R_LunCap_3rdMC_JC			V_R_3rdMC_3rdPP_JC			V_R_3rdPP_3rdMP_JC			V_R_3rdMP_3rdDP_JC			V_L_ScaTrpz_1stMC_JC			V_L_1stMC_1stPP_JC			V_L_1stPP_1stDP_JC			V_L_LunCap_3rdMC_JC			V_L_3rdMC_3rdPP_JC			V_L_3rdPP_3rdMP_JC			V_L_3rdMP_3rdPP_JC			V_ROOT_JC			V_R_Hip_JC			V_L_Hip_JC			V_R_GlenHum_JC			V_L_GlenHum_JC			V_ForeHead_Ctr			V_Vertex			V_Sagit_Lambdoid_Suture			V_R_FrontoTemp			V_L_FrontoTemporal			V_R_ParietalOccip			V_L_ParietalOcciptal			V_R_Temporal			V_L_Temporal			V_mid_FrontRearHead			V_mid_RLGlenHumCtrs			V_C7_vert			V_C1_vert			V_Mid_Hip			
		X1	Y1	Z1	X2	Y2	Z2	X3	Y3	Z3	X4	Y4	Z4	X5	Y5	Z5	X6	Y6	Z6	X7	Y7	Z7	X8	Y8	Z8	X9	Y9	Z9	X10	Y10	Z10	X11	Y11	Z11	X12	Y12	Z12	X13	Y13	Z13	X14	Y14	Z14	X15	Y15	Z15	X16	Y16	Z16	X17	Y17	Z17	X18	Y18	Z18	X19	Y19	Z19	X20	Y20	Z20	X21	Y21	Z21	X22	Y22	Z22	X23	Y23	Z23	X24	Y24	Z24	X25	Y25	Z25	X26	Y26	Z26	X27	Y27	Z27	X28	Y28	Z28	X29	Y29	Z29	X30	Y30	Z30	X31	Y31	Z31	X32	Y32	Z32	X33	Y33	Z33	X34	Y34	Z34	X35	Y35	Z35	X36	Y36	Z36	X37	Y37	Z37	X38	Y38	Z38	X39	Y39	Z39	X40	Y40	Z40	X41	Y41	Z41	X42	Y42	Z42	X43	Y43	Z43	X44	Y44	Z44	X45	Y45	Z45	X46	Y46	Z46	X47	Y47	Z47	X48	Y48	Z48	X49	Y49	Z49	X50	Y50	Z50	X51	Y51	Z51	X52	Y52	Z52	X53	Y53	Z53	X54	Y54	Z54	X55	Y55	Z55	X56	Y56	Z56	X57	Y57	Z57	X58	Y58	Z58	X59	Y59	Z59	X60	Y60	Z60	

463	3.850	-1104.85400	115.61216	1795.36975	-1201.24902	97.26408	1681.92517	-975.36719	114.59949	1698.89868	-1155.26563	96.91189	1516.57092	-964.87598	111.77814	1562.01331	-1066.42200	215.15839	1462.12317	-1061.24219	-11.33442	1472.99243	-1033.36755	306.45712	1454.74792	-988.81232	-102.28887	1485.19421	-916.67670	198.84886	1474.20776	-906.49725	28.44613	1484.56177	-870.31061	206.98936	1386.46631	-992.39069	365.34238	1275.78479	-961.63080	384.05121	1121.68420	-937.96045	295.41443	1106.20129	-1045.56201	324.54709	1010.91040	-1020.88184	368.39041	908.91455	-1078.17615	303.46643	882.31995	-1078.50220	342.86380	834.25696	-1090.49133	297.24963	849.53210	-1125.94250	264.84555	806.71075	-1164.56750	260.11667	781.33899	-1123.57629	342.35565	765.75781	-1138.44006	301.71539	714.08820	-1124.25842	258.04999	690.19348	-951.60535	-168.69017	1341.34607	-922.02570	-215.43962	1167.90149	-881.50238	-150.25586	1151.56567	-984.83728	-200.83708	1060.45557	-927.76184	-223.21565	973.80212	-997.70020	-177.25479	918.80713	-985.81018	-212.44022	862.92560	-1005.44580	-168.08403	852.85864	-1002.35797	-134.94902	801.82623	-1003.01379	-142.29317	740.77100	-994.72394	-232.61897	788.57611	-980.91846	-213.52997	730.77612	-956.98358	-193.35825	689.02130	-873.62903	89.70519	1082.44324	-982.22369	272.39267	1024.77258	-965.48621	-104.38049	1028.78284	-1069.12805	211.21841	625.23108	-1146.83398	118.67233	565.06342	-1101.96338	177.54594	499.92435	-1090.12146	66.00130	505.92453	-1108.28113	127.62140	319.11578	-1004.56891	155.11404	65.29891	-1035.98279	57.84437	88.81122	-944.57318	95.95831	40.11363	-1186.53430	113.77676	44.02481	-1114.20007	73.77681	65.70610	-1060.42676	-123.56059	650.81799	-1089.39880	-117.40064	505.45880	-1103.08215	2.31068	496.50409	-985.98529	-61.12019	335.15451	-758.53174	-77.78641	203.59285	-816.44116	10.68835	210.28351	-718.63019	-15.50919	231.55428	-861.92584	-29.79180	60.73433	-847.87714	-4.31913	114.18706																																																																																																																															
464	3.858	-1109.82385	115.00655	1795.88904	-1207.13135	97.84991	1681.96448	-981.80768	114.00525	1699.91406	-1160.40051	97.52596	1516.69482	-969.89478	113.02158	1562.65088	-1070.96033	215.13132	1462.49512	-1066.07104	-11.34973	1473.52429	-1038.86780	307.38080	1454.98071	-992.78168	-101.82973	1486.09253	-921.45868	199.26541	1474.99963	-911.47266	28.83040	1485.28369	-874.80719	207.17816	1386.87158	-998.07916	366.09280	1276.30676	-967.63324	383.19516	1122.22339	-941.36877	295.47009	1105.66272	-1051.83362	325.73807	1011.37531	-1026.71570	369.23315	909.04749	-1085.13550	304.26431	882.48608	-1085.08997	343.34451	834.53894	-1097.42908	298.14658	850.18152	-1133.84155	264.51819	808.60120	-1171.62244	261.38257	782.77191	-1130.50110	342.74796	765.85321	-1145.87354	303.20557	714.71002	-1133.76306	257.24207	690.82043	-955.92603	-167.38263	1341.80225	-925.84174	-215.83267	1168.74072	-885.83606	-146.98798	1152.33276	-989.27496	-199.96248	1060.52209	-931.30865	-222.84914	974.04675	-1001.61731	-177.20955	919.48352	-989.71899	-211.19228	862.87189	-1009.33496	-167.84727	853.07080	-1003.39691	-133.06444	801.31921	-1005.14563	-142.13660	742.00946	-998.24646	-231.16272	789.05103	-984.32166	-212.45688	730.83264	-960.91016	-190.20946	688.79504	-879.15918	89.17462	1082.29553	-981.89111	271.53851	1025.08044	-971.87592	-103.92721	1029.38403	-1071.10974	211.06778	625.33618	-1150.67749	117.47932	566.17523	-1103.74719	177.78398	499.35571	-1091.61865	65.67132	505.42474	-1109.31030	126.61750	318.27542	-1004.54669	155.43283	65.93354	-1036.22705	57.76986	88.69240	-944.92914	95.50875	40.37370	-1186.53430	113.77676	44.02481	-1114.73999	74.11166	65.90857	-1070.75830	-122.71039	652.84137	-1098.88904	-116.40305	507.09763	-1112.77734	3.83541	498.27808	-997.28961	-61.56369	336.11026	-770.78149	-77.32465	202.69829	-828.28149	9.93409	209.09309	-729.91370	-14.85213	229.24791	-877.60754	-34.20777	62.48857	-861.43738	-6.03198	114.92912																																																																																																																															
465	3.867	-1115.12207	115.10525	1796.00952	-1212.19897	97.62939	1681.55054	-988.07001	116.99989	1700.68274	-1165.38684	97.91376	1516.45898	-973.04736	111.59188	1562.71753	-1076.78394	215.67323	1463.05188	-1070.64563	-10.71730	1474.43921	-1042.15930	306.27771	1455.59424	-997.21667	-102.30344	1486.17615	-928.04285	199.33145	1474.39368	-915.81018	29.58734	1484.65076	-879.75580	208.89452	1386.38831	-1004.05347	365.65659	1276.99463	-974.07788	383.66135	1122.12561	-949.30780	294.79660	1105.96191	-1059.60425	327.27295	1012.37671	-1034.59448	371.07761	910.12732	-1092.71289	305.21637	882.85876	-1093.26917	343.55872	835.06958	-1105.01184	298.58887	851.43549	-1141.43494	265.96890	808.77173	-1178.86316	261.54156	783.25073	-1138.24988	344.73987	767.41382	-1155.22351	302.85123	716.53156	-1141.11414	257.82584	691.73138	-960.17352	-166.74438	1342.45264	-930.97473	-215.22676	1169.28894	-889.84845	-146.93228	1152.82422	-993.98895	-199.85466	1061.28174	-935.79077	-219.63536	974.72339	-1005.42975	-176.01527	919.61127	-993.20721	-210.31026	863.52844	-1013.89832	-166.93146	853.87982	-1009.75818	-132.65848	802.51349	-1012.36127	-142.92525	742.21954	-1001.60785	-230.00594	788.99017	-987.87158	-211.42216	731.95190	-964.51434	-190.83000	690.27081	-883.62671	88.82265	1082.74805	-983.84381	272.15897	1024.65564	-977.49200	-103.91785	1029.90710	-1073.47681	210.94373	625.31219	-1151.44324	119.63268	564.21924	-1104.83020	178.04729	499.73297	-1094.04504	65.30051	505.66541	-1110.04578	128.06676	318.12549	-1004.62988	155.45752	65.86843	-1036.15417	57.66433	88.19612	-944.77948	95.54362	40.37379	-1186.53430	113.77676	44.02481	-1114.74084	74.10147	65.78085	-1079.19592	-121.42126	654.57520	-1108.15564	-114.90032	508.58929	-1121.34167	5.75838	499.57468	-1008.05914	-60.45246	336.80020	-783.01776	-78.37256	201.08990	-839.10297	10.89007	207.87134	-741.55103	-13.55786	225.85306	-893.46362	-36.96839	63.34818	-876.06042	-8.07249	114.98003																																																																																																																															
466	3.875	-1120.13159	114.10101	1796.01709	-1217.69897	99.20635	1680.99890	-992.02863	116.68564	1700.39746	-1169.37134	97.69445	1516.36902	-977.70789	112.79255	1562.96582	-1081.94836	215.54114	1463.56470	-1075.40601	-10.07644	1474.75415	-1048.39673	307.40137	1456.59985	-1001.68109	-101.55640	1486.44958	-931.40594	199.79933	1474.70483	-921.29803	31.32882	1485.66711	-883.82373	209.45760	1387.82593	-1009.29901	366.17581	1277.55627	-979.77441	384.09509	1122.83118	-956.27881	296.86554	1105.00732	-1066.14294	327.41983	1012.90466	-1040.70166	370.91666	909.71906	-1099.89636	305.69794	883.89319	-1100.38904	344.81381	835.93848	-1112.07898	299.64029	851.58990	-1148.02478	266.70142	809.30334	-1186.45117	262.33823	783.77100	-1146.00403	344.96997	768.41132	-1161.48059	304.04977	717.73236	-1148.58057	258.05295	692.32294	-964.34943	-167.27592	1343.05676	-934.39880	-215.11389	1170.09973	-893.97699	-146.08600	1153.51880	-997.98877	-198.96439	1061.50598	-939.67517	-219.76703	974.75922	-1009.36060	-175.78946	920.13190	-997.83563	-211.52417	864.37689	-1017.54645	-166.54243	853.84753	-1014.01312	-132.73143	803.03339	-1012.25293	-141.28168	741.87347	-1004.86212	-229.42346	789.20184	-991.44592	-210.65825	732.90997	-967.95770	-190.83655	690.40961	-887.63446	90.03957	1083.06909	-989.83704	273.15088	1024.75708	-981.69781	-104.52191	1031.05457	-1075.71619	211.40913	624.62903	-1153.61401	119.28808	563.73175	-1107.25146	177.69844	498.68625	-1095.83789	65.26097	505.68958	-1111.00928	128.19366	318.08273	-1004.54279	155.63139	65.86899	-1036.08118	57.90269	88.33725	-943.91180	96.13785	40.27942	-1186.68628	113.73472	43.98346	-1114.59351	73.69823	65.51649	-1088.13416	-120.33108	655.41089	-1119.01538	-113.64663	510.65289	-1129.36975	5.47591	501.36136	-1018.22729	-59.69770	337.16061	-795.77313	-78.72910	199.22284	-853.29926	9.71317	206.26065	-753.42389	-14.53115	222.61252	-910.19037	-41.21884	66.28918	-891.02527	-9.85523	113.95265																																																																																																																															
